<svg width="558" height="144" viewBox="0 0 558 144" fill="none" xmlns="http://www.w3.org/2000/svg">
<path fill-rule="evenodd" clip-rule="evenodd" d="M111.18 9.18742C111.18 4.0833 115.999 0 121.62 0H232.707C238.595 0 243.146 4.0833 243.146 9.18742V71.4578C243.146 87.5359 232.974 104.38 212.899 121.988C198.711 134.238 184.524 142.405 183.989 142.66C180.509 144.446 176.227 144.446 172.746 142.66C172.645 142.563 172.032 142.2 171.006 141.591C166.624 138.991 154.695 131.914 142.767 121.988C121.888 104.634 111.18 87.5359 111.18 71.2025V9.18742ZM140.09 30.8787L167.661 99.2742H186.131L213.969 30.8787H196.838L177.833 78.8577H177.297L158.025 30.8787H140.09Z" fill="#295BE0"/>
<path d="M277.471 61.8501C280.73 61.8501 283.639 62.5907 286.199 64.0718C288.781 65.5317 290.77 67.6476 292.166 70.4194C293.584 73.1701 294.292 76.3228 294.292 79.8774C294.292 79.9832 294.292 80.089 294.292 80.1948C294.292 85.9712 292.769 90.4886 289.722 93.7471C286.675 97.0055 282.433 98.6348 276.995 98.6348C276.91 98.6348 276.815 98.6348 276.709 98.6348C273.451 98.6348 270.531 97.8942 267.95 96.4131C265.389 94.9108 263.401 92.7738 261.983 90.002C260.586 87.2301 259.888 84.0669 259.888 80.5122C259.888 80.4064 259.888 80.3006 259.888 80.1948C259.888 74.3973 261.401 69.901 264.427 66.7061C267.452 63.4688 271.705 61.8501 277.186 61.8501C277.27 61.8501 277.365 61.8501 277.471 61.8501ZM282.645 72.2603C281.481 70.5252 279.619 69.6577 277.059 69.6577C274.498 69.6577 272.636 70.5146 271.473 72.2285C270.33 73.9424 269.759 76.5978 269.759 80.1948C269.759 83.7707 270.341 86.4473 271.504 88.2246C272.689 89.9808 274.551 90.8589 277.09 90.8589C279.651 90.8589 281.502 89.9808 282.645 88.2246C283.808 86.4684 284.39 83.8024 284.39 80.2266C284.39 76.6296 283.808 73.9741 282.645 72.2603ZM315 62.5166H324.934V69.7847H315V86.8916C315 88.2246 315.37 89.2297 316.111 89.9067C316.872 90.5838 317.994 90.9224 319.475 90.9224C320.956 90.9224 322.903 90.5521 325.315 89.8115V97.0161C322.903 98.0952 319.856 98.6348 316.174 98.6348C312.514 98.6348 309.784 97.672 307.986 95.7466C306.208 93.8 305.32 90.8483 305.32 86.8916V69.7847H300.686V65.6904L306.018 62.4531L308.811 54.9629H315V62.5166ZM334.057 53.376C334.057 50.2021 335.813 48.6152 339.325 48.6152C342.838 48.6152 344.594 50.1916 344.594 53.3442C344.594 54.8677 344.15 56.042 343.261 56.8672C342.372 57.6924 341.06 58.105 339.325 58.105C335.813 58.105 334.057 56.5286 334.057 53.376ZM344.15 98H334.469V62.5166H344.15V98ZM371.681 61.8501C374.939 61.8501 377.848 62.5907 380.409 64.0718C382.99 65.5317 384.979 67.6476 386.375 70.4194C387.793 73.1701 388.502 76.3228 388.502 79.8774C388.502 79.9832 388.502 80.089 388.502 80.1948C388.502 85.9712 386.978 90.4886 383.932 93.7471C380.885 97.0055 376.642 98.6348 371.204 98.6348C371.12 98.6348 371.025 98.6348 370.919 98.6348C367.66 98.6348 364.74 97.8942 362.159 96.4131C359.599 94.9108 357.61 92.7738 356.192 90.002C354.796 87.2301 354.098 84.0669 354.098 80.5122C354.098 80.4064 354.098 80.3006 354.098 80.1948C354.098 74.3973 355.61 69.901 358.636 66.7061C361.662 63.4688 365.915 61.8501 371.395 61.8501C371.48 61.8501 371.575 61.8501 371.681 61.8501ZM376.854 72.2603C375.69 70.5252 373.828 69.6577 371.268 69.6577C368.708 69.6577 366.846 70.5146 365.682 72.2285C364.539 73.9424 363.968 76.5978 363.968 80.1948C363.968 83.7707 364.55 86.4473 365.714 88.2246C366.899 89.9808 368.761 90.8589 371.3 90.8589C373.86 90.8589 375.711 89.9808 376.854 88.2246C378.018 86.4684 378.6 83.8024 378.6 80.2266C378.6 76.6296 378.018 73.9741 376.854 72.2603ZM418.635 61.8501C422.74 61.8501 425.861 62.9715 427.998 65.2144C430.156 67.436 431.236 70.6522 431.236 74.8628V98H421.555V77.2749C421.555 74.6935 421.09 72.7681 420.159 71.4985C419.249 70.229 417.81 69.5942 415.842 69.5942C413.134 69.5942 411.177 70.5041 409.971 72.3237C408.765 74.1434 408.162 77.1374 408.162 81.3057V98H398.482V62.5166H405.877L407.178 67.0869H407.717C408.775 65.373 410.246 64.0718 412.129 63.1831C414.033 62.2944 416.202 61.8501 418.635 61.8501Z" fill="#464555"/>
</svg>
