<svg width="126" height="144" viewBox="0 0 126 144" fill="none" xmlns="http://www.w3.org/2000/svg">
<path fill-rule="evenodd" clip-rule="evenodd" d="M0 9.18742C0 4.0833 4.59371 0 9.95306 0H115.864C121.478 0 125.817 4.0833 125.817 9.18742V71.4578C125.817 87.5359 116.119 104.38 96.9785 121.988C83.4524 134.238 69.9264 142.405 69.4163 142.66C66.0982 144.446 62.0153 144.446 58.6972 142.66C58.6008 142.563 58.0165 142.2 57.0384 141.591C52.8602 138.991 41.4873 131.914 30.1143 121.988C10.2083 104.634 0 87.5359 0 71.2025V9.18742ZM27.5626 30.8787L53.8488 99.2742H71.4578L97.9992 30.8787H81.6663L63.5466 78.8577H63.036L44.6614 30.8787H27.5626Z" fill="#295BE0"/>
</svg>
